<?xml version="1.0" encoding="UTF-8" standalone="no"?>
<!-- Created with Inkscape (http://www.inkscape.org/) -->

<svg
   width="954.81256"
   height="1075.7965"
   id="svg2160"
   sodipodi:version="0.32"
   inkscape:version="1.3.2 (091e20e, 2023-11-25, custom)"
   sodipodi:docname="logo_white.svg"
   inkscape:output_extension="org.inkscape.output.svg.inkscape"
   version="1.1"
   xmlns:inkscape="http://www.inkscape.org/namespaces/inkscape"
   xmlns:sodipodi="http://sodipodi.sourceforge.net/DTD/sodipodi-0.dtd"
   xmlns="http://www.w3.org/2000/svg"
   xmlns:svg="http://www.w3.org/2000/svg"
   xmlns:rdf="http://www.w3.org/1999/02/22-rdf-syntax-ns#"
   xmlns:cc="http://creativecommons.org/ns#"
   xmlns:dc="http://purl.org/dc/elements/1.1/">
  <defs
     id="defs2162" />
  <sodipodi:namedview
     id="base"
     pagecolor="#ffffff"
     bordercolor="#666666"
     borderopacity="1.0"
     inkscape:pageopacity="0.0"
     inkscape:pageshadow="2"
     inkscape:zoom="0.6"
     inkscape:cx="352.5"
     inkscape:cy="204.16667"
     inkscape:current-layer="layer1"
     inkscape:document-units="px"
     inkscape:window-width="1920"
     inkscape:window-height="1013"
     inkscape:window-x="-9"
     inkscape:window-y="-9"
     showgrid="false"
     fit-margin-top="0"
     fit-margin-left="0"
     fit-margin-right="0"
     fit-margin-bottom="0"
     inkscape:window-maximized="1"
     inkscape:showpageshadow="0"
     inkscape:pagecheckerboard="1"
     inkscape:deskcolor="#505050" />
  <metadata
     id="metadata2165">
    <rdf:RDF>
      <cc:Work
         rdf:about="">
        <dc:format>image/svg+xml</dc:format>
        <dc:type
           rdf:resource="http://purl.org/dc/dcmitype/StillImage" />
      </cc:Work>
    </rdf:RDF>
  </metadata>
  <g
     id="layer1"
     inkscape:label="Layer 1"
     inkscape:groupmode="layer"
     transform="translate(-329.24402,-53.217143)">
    <ellipse
       style="opacity:1;fill:#ffffff;stroke:#feffff;stroke-width:2.12265;stroke-linecap:square;paint-order:stroke fill markers;fill-opacity:1"
       id="path2"
       cx="629.24402"
       cy="353.21716"
       rx="298.93866"
       ry="298.93869"
       inkscape:export-filename="logo.png"
       inkscape:export-xdpi="7.6799998"
       inkscape:export-ydpi="7.6799998" />
    <path
       style="opacity:1;fill:#000000;stroke:#000000;stroke-width:4.76707;stroke-linejoin:bevel;fill-opacity:1"
       d="m 478.91052,552.36059 c -1.25657,-1.81824 -2.66593,-3.96861 -3.13188,-4.77858 -0.52666,-0.91547 3.80817,-4.69005 11.45717,-9.97642 40.16683,-27.76014 61.25947,-53.4814 65.94826,-80.4201 3.65524,-21.00066 -5.40506,-40.27099 -22.48904,-47.83189 -6.13109,-2.71345 -19.97274,-3.33583 -25.65538,-1.15356 -2.80537,1.07732 -3.75868,0.81835 -6.07724,-1.6509 l -2.74993,-2.92866 7.3382,-6.00847 c 10.6615,-8.72957 16.58046,-11.04459 26.7349,-10.45653 6.04218,0.34992 10.73206,1.60493 16.99765,4.54856 4.7592,2.23592 8.8731,4.0653 9.142,4.0653 1.04446,0 0.41698,-12.82743 -0.93629,-19.14078 -2.07838,-9.69604 -5.33953,-16.55143 -10.69497,-22.48229 -5.83459,-6.46147 -11.42947,-9.399 -21.78316,-11.437 -9.75473,-1.92011 -22.02064,-0.0904 -29.78991,4.44379 -4.96072,2.8951 -5.1142,2.90678 -7.95422,0.6059 -2.3877,-1.93442 -2.65552,-2.79555 -1.52612,-4.90692 2.35274,-4.39839 16.68845,-15.45744 25.25687,-19.48401 7.30943,-3.43494 9.49244,-3.85571 20.17546,-3.88882 6.58855,-0.0204 13.98014,0.39058 16.42575,0.91331 l 4.44657,0.95043 0.0692,-21.13615 c 0.13768,-42.08119 8.65126,-63.02955 38.26265,-94.14839 7.70081,-8.09283 8.91652,-9.87562 6.3661,-9.33564 -34.8859,7.38612 -35.90348,7.52949 -49.17767,6.92849 -10.72855,-0.48575 -15.99094,-1.48438 -27.74125,-5.26438 -16.4361,-5.28738 -29.83503,-6.90614 -37.15572,-4.48887 -12.21083,4.03199 -19.42139,16.67249 -17.6414,30.92633 l 0.86611,6.93561 -4.2434,1.80157 c -2.33388,0.99087 -4.69215,1.36519 -5.24061,0.83184 -0.54846,-0.53336 -1.94697,-5.56527 -3.1078,-11.18202 -3.89202,-18.83183 1.25499,-35.50186 15.68776,-50.80915 14.50669,-15.38567 27.5167,-21.39995 46.21878,-21.36606 12.21023,0.0221 19.79811,1.69013 47.48912,10.43928 19.24339,6.08007 21.70559,6.56624 32.78512,6.47341 13.14073,-0.11011 24.5509,-3.14782 42.41083,-11.291 l 9.2964,-4.23866 1.99495,3.85975 c 1.09719,2.12286 1.52106,4.25562 0.9419,4.73946 -0.57916,0.48384 -5.70359,4.73927 -11.38762,9.4565 -26.1682,21.71731 -36.95164,43.10789 -36.95164,73.29924 0,5.97218 1.5195,25.44065 3.37665,43.26325 4.38286,42.06135 4.98282,95.31828 1.26428,112.22434 -6.00312,27.29242 -17.84148,52.77245 -38.87547,83.67267 -4.05753,5.96076 -7.37733,11.24846 -7.37733,11.75045 0,1.45845 13.63612,-8.55158 24.30103,-17.83893 30.07988,-26.19461 49.3261,-59.4641 55.62572,-96.156 2.8856,-16.80717 2.53602,-36.76348 -1.31055,-74.81866 -4.3436,-42.97198 -4.5495,-71.45035 -0.62247,-86.09614 7.04814,-26.28614 21.83194,-44.77367 44.95044,-56.21173 13.84862,-6.8517 27.20664,-10.0587 45.46999,-10.91644 l 15.20682,-0.71418 2.64015,6.35624 2.64019,6.35624 -5.86779,0.82452 c -23.77101,3.34022 -41.29127,12.4567 -48.89834,25.44376 -7.90701,13.49919 -8.56274,27.10541 -3.60998,74.91027 6.94362,67.02161 5.54353,94.36361 -6.26876,122.41987 -9.47589,22.50699 -31.01076,47.49324 -71.65474,83.13897 -8.17297,7.16788 -14.6237,13.26892 -14.33491,13.55784 0.28878,0.28892 5.55716,-0.88547 11.70753,-2.60975 22.91305,-6.42379 35.81819,-8.52514 56.57729,-9.21251 23.05143,-0.76329 36.65042,1.01029 55.05858,7.18073 17.45452,5.85077 38.21089,17.06593 50.74389,27.41814 l 3.66424,3.02663 7.68447,-7.3529 c 4.22644,-4.04409 10.13198,-9.61721 13.12336,-12.38471 l 5.4389,-5.0318 4.46302,4.85384 c 2.45471,2.6696 3.97924,5.30058 3.38792,5.84662 -0.59133,0.54605 -15.15274,14.05876 -32.35861,30.02829 l -31.28345,29.03549 -12.21988,-8.19063 c -22.51582,-15.09161 -46.42394,-25.11556 -73.37679,-30.76467 -17.12272,-3.58881 -49.64959,-3.91173 -68.66848,-0.68181 -32.31387,5.48786 -65.80578,17.03197 -98.14483,33.82892 l -11.04385,5.73624 z"
       id="path1" />
  </g>
</svg>
